M48
; DRILL file {KiCad 5.1.4} date Mo 26 Aug 2019 22:56:05 CEST
; FORMAT={-:-/ absolute / metric / decimal}
; #@! TF.CreationDate,2019-08-26T22:56:05+02:00
; #@! TF.GenerationSoftware,Kicad,Pcbnew,5.1.4
; #@! TF.FileFunction,Plated,1,2,PTH
FMAT,2
METRIC
T1C0.400
T2C0.500
T3C0.800
T4C1.000
T5C1.300
T6C1.500
T7C3.200
%
G90
G05
T1
X170.75Y-87.5
X170.75Y-89.5
X170.75Y-99.0
X172.0Y-64.25
X172.0Y-71.0
X172.0Y-78.5
X173.25Y-101.25
X176.5Y-55.75
X176.5Y-62.75
X176.5Y-64.75
X177.25Y-97.0
X178.25Y-80.75
X178.25Y-85.5
X180.75Y-85.5
X182.0Y-73.25
X182.5Y-93.25
X182.75Y-87.75
X182.75Y-90.0
X185.5Y-78.5
X185.5Y-80.75
X186.55Y-66.95
X186.75Y-95.0
X187.25Y-67.75
X187.5Y-89.5
X188.75Y-89.5
X188.75Y-92.75
X189.25Y-70.75
X189.75Y-89.5
X190.0Y-85.25
X190.25Y-69.75
X190.75Y-100.25
X191.0Y-68.75
X191.0Y-71.5
X191.0Y-73.25
X191.5Y-99.0
X192.25Y-64.75
X193.25Y-71.5
X193.25Y-73.25
X193.75Y-99.75
X193.75Y-102.5
X194.5Y-98.0
X195.25Y-64.75
X195.25Y-99.0
X196.0Y-98.0
X198.0Y-106.75
X198.75Y-86.5
X198.75Y-93.25
X200.25Y-93.25
X201.25Y-62.75
X201.25Y-64.75
X201.25Y-73.25
X201.25Y-87.75
X201.75Y-98.0
X201.75Y-101.25
X202.5Y-111.0
X202.75Y-92.5
X203.5Y-118.0
X203.5Y-127.5
X204.25Y-83.0
X204.25Y-87.75
X204.25Y-92.5
X204.25Y-94.5
X204.25Y-96.25
X206.75Y-83.0
X210.25Y-59.0
X210.25Y-62.0
X211.75Y-87.75
X211.75Y-93.25
X211.75Y-95.75
X211.75Y-100.75
X213.0Y-127.5
X215.0Y-95.75
X215.0Y-100.75
X217.25Y-119.0
X217.5Y-95.25
X217.75Y-59.0
X222.5Y-116.25
X222.5Y-117.5
X222.5Y-127.5
X225.25Y-59.0
X227.75Y-91.5
X232.75Y-59.0
X235.0Y-102.5
X236.25Y-91.5
X237.5Y-128.5
X240.25Y-59.0
X244.5Y-121.75
X246.5Y-59.0
X247.75Y-118.5
X251.0Y-63.75
X251.0Y-70.0
X251.0Y-77.5
X251.0Y-85.0
X251.0Y-92.5
X251.0Y-100.0
X251.0Y-107.5
X251.0Y-115.25
T2
X81.75Y-59.5
X81.75Y-61.0
X83.75Y-59.5
X83.75Y-61.0
X86.0Y-59.5
X87.75Y-57.75
X89.5Y-51.75
X89.5Y-53.75
X89.5Y-56.0
X90.5Y-80.0
X90.5Y-83.0
X90.5Y-86.0
X90.5Y-92.0
X90.5Y-95.0
X90.5Y-98.0
X90.5Y-106.5
X90.5Y-111.0
X90.5Y-114.0
X91.0Y-125.5
X91.0Y-128.5
X91.25Y-51.75
X91.25Y-53.75
X93.0Y-83.0
X93.0Y-95.0
X93.0Y-111.0
X93.5Y-128.5
X95.5Y-106.5
X95.5Y-111.0
X95.5Y-114.0
X96.0Y-80.0
X96.0Y-83.0
X96.0Y-86.0
X96.0Y-92.0
X96.0Y-95.0
X96.0Y-98.0
X105.5Y-118.0
X105.5Y-121.0
X105.5Y-124.5
X105.5Y-127.5
X107.5Y-85.0
X107.5Y-87.0
X107.5Y-89.0
X107.5Y-91.0
X107.5Y-93.0
X107.5Y-95.0
X107.5Y-97.0
X107.5Y-99.0
X109.0Y-118.0
X109.5Y-83.0
X109.5Y-85.0
X109.5Y-87.0
X109.5Y-89.0
X109.5Y-91.0
X109.5Y-93.0
X109.5Y-95.0
X109.5Y-97.0
X109.5Y-99.0
X109.5Y-101.0
X111.5Y-83.0
X111.5Y-85.0
X111.5Y-99.0
X111.5Y-101.0
X111.5Y-103.0
X112.0Y-88.0
X112.0Y-92.0
X112.0Y-96.5
X112.0Y-118.0
X113.5Y-83.0
X113.5Y-85.0
X113.5Y-99.0
X113.5Y-101.0
X113.5Y-103.0
X113.75Y-89.75
X113.75Y-94.5
X115.5Y-88.0
X115.5Y-92.0
X115.5Y-96.5
X115.5Y-99.0
X115.5Y-101.0
X115.5Y-103.0
X115.5Y-118.0
X118.5Y-118.0
X118.5Y-121.0
X118.5Y-124.5
X118.5Y-127.5
X123.25Y-96.5
X123.25Y-98.5
X123.25Y-109.0
X123.25Y-111.0
X125.25Y-96.5
X125.25Y-98.5
X125.25Y-109.0
X125.25Y-111.0
X125.5Y-118.0
X125.5Y-121.0
X125.5Y-124.5
X125.5Y-127.5
X127.25Y-96.5
X127.25Y-98.5
X127.25Y-109.0
X127.25Y-111.0
X129.0Y-118.0
X129.25Y-94.5
X129.25Y-96.5
X129.25Y-98.5
X129.25Y-109.0
X129.25Y-111.0
X129.4Y-85.6
X132.0Y-118.0
X135.0Y-118.0
X138.5Y-118.0
X138.5Y-121.0
X138.5Y-124.5
X138.5Y-127.5
X144.0Y-74.0
X144.54Y-94.54
X145.5Y-118.0
X145.5Y-121.0
X145.5Y-124.5
X145.5Y-127.5
X147.0Y-101.5
X148.5Y-101.5
X149.0Y-118.0
X152.0Y-118.0
X153.0Y-68.5
X154.5Y-71.0
X155.0Y-118.0
X158.5Y-118.0
X158.5Y-121.0
X158.5Y-124.5
X158.5Y-127.5
X160.5Y-77.0
X160.5Y-87.5
X160.5Y-89.5
X160.5Y-97.0
X160.5Y-99.0
X161.0Y-51.25
X161.0Y-52.75
X161.0Y-54.25
X162.0Y-118.0
X162.0Y-121.0
X162.0Y-124.5
X162.0Y-127.5
X163.0Y-51.25
X163.0Y-52.75
X163.0Y-54.25
X163.0Y-73.0
X163.0Y-75.0
X163.0Y-77.0
X163.0Y-87.5
X163.0Y-89.5
X163.0Y-97.0
X163.0Y-99.0
X165.0Y-51.25
X165.0Y-52.75
X165.0Y-54.25
X165.5Y-73.0
X165.5Y-75.0
X165.5Y-77.0
X165.5Y-87.5
X165.5Y-89.5
X165.5Y-97.0
X165.5Y-99.0
X165.5Y-118.0
X165.5Y-121.0
X165.5Y-124.5
X165.5Y-127.5
X169.0Y-118.0
X172.0Y-118.0
X175.0Y-118.0
X178.5Y-118.0
X178.5Y-121.0
X178.5Y-124.5
X178.5Y-127.5
X185.5Y-118.0
X185.5Y-121.0
X185.5Y-124.5
X185.5Y-127.5
X187.0Y-84.0
X189.0Y-118.0
X192.0Y-118.0
X192.75Y-88.5
X192.75Y-91.0
X195.25Y-88.5
X195.25Y-91.0
X195.5Y-118.0
X198.5Y-118.0
X198.5Y-121.0
X198.5Y-124.5
X198.5Y-127.5
X211.25Y-51.75
X211.25Y-53.75
X213.5Y-51.75
X213.5Y-53.75
X245.5Y-128.5
X248.5Y-126.0
X248.5Y-128.5
X249.0Y-51.75
X249.0Y-53.75
X250.5Y-51.75
X250.5Y-53.75
X250.5Y-56.0
X252.25Y-57.75
X254.0Y-59.5
X256.0Y-59.5
X256.0Y-61.25
X258.0Y-59.5
X258.0Y-61.25
T3
X104.8Y-71.5
X107.0Y-64.0
T4
X120.5Y-60.5
X120.5Y-75.5
X135.5Y-65.5
X135.5Y-70.5
X230.0Y-117.0
X230.0Y-119.54
X232.54Y-117.0
X232.54Y-119.54
X235.08Y-117.0
X235.08Y-119.54
X237.62Y-117.0
X237.62Y-119.54
X240.16Y-117.0
X240.16Y-119.54
T5
X93.0Y-64.2
X93.0Y-70.0
X93.0Y-80.2
X93.0Y-86.0
X93.0Y-92.2
X93.0Y-98.0
X93.0Y-108.2
X93.0Y-114.0
T6
X194.0Y-89.75
T7
X192.0Y-124.5
X132.0Y-124.5
X152.0Y-124.5
X172.0Y-124.5
X85.0Y-125.0
X112.0Y-124.5
X207.5Y-125.0
X255.0Y-125.0
X255.0Y-55.0
X218.5Y-125.0
X85.0Y-55.0
T0
M30
