%TF.GenerationSoftware,KiCad,Pcbnew,5.1.4*%
%TF.CreationDate,2019-08-26T22:55:56+02:00*%
%TF.ProjectId,hotplate_ctl,686f7470-6c61-4746-955f-63746c2e6b69,rev?*%
%TF.SameCoordinates,Original*%
%TF.FileFunction,Legend,Bot*%
%TF.FilePolarity,Positive*%
%FSLAX46Y46*%
G04 Gerber Fmt 4.6, Leading zero omitted, Abs format (unit mm)*
G04 Created by KiCad (PCBNEW 5.1.4) date 2019-08-26 22:55:56*
%MOMM*%
%LPD*%
G04 APERTURE LIST*
%ADD10C,0.150000*%
%ADD11C,0.120000*%
G04 APERTURE END LIST*
D10*
X156914404Y-58052380D02*
X156914404Y-57052380D01*
X156485833Y-58004761D02*
X156390595Y-58052380D01*
X156200119Y-58052380D01*
X156104880Y-58004761D01*
X156057261Y-57909523D01*
X156057261Y-57861904D01*
X156104880Y-57766666D01*
X156200119Y-57719047D01*
X156342976Y-57719047D01*
X156438214Y-57671428D01*
X156485833Y-57576190D01*
X156485833Y-57528571D01*
X156438214Y-57433333D01*
X156342976Y-57385714D01*
X156200119Y-57385714D01*
X156104880Y-57433333D01*
X155485833Y-58052380D02*
X155581071Y-58004761D01*
X155628690Y-57957142D01*
X155676309Y-57861904D01*
X155676309Y-57576190D01*
X155628690Y-57480952D01*
X155581071Y-57433333D01*
X155485833Y-57385714D01*
X155342976Y-57385714D01*
X155247738Y-57433333D01*
X155200119Y-57480952D01*
X155152500Y-57576190D01*
X155152500Y-57861904D01*
X155200119Y-57957142D01*
X155247738Y-58004761D01*
X155342976Y-58052380D01*
X155485833Y-58052380D01*
X154581071Y-58052380D02*
X154676309Y-58004761D01*
X154723928Y-57909523D01*
X154723928Y-57052380D01*
X153771547Y-58052380D02*
X153771547Y-57528571D01*
X153819166Y-57433333D01*
X153914404Y-57385714D01*
X154104880Y-57385714D01*
X154200119Y-57433333D01*
X153771547Y-58004761D02*
X153866785Y-58052380D01*
X154104880Y-58052380D01*
X154200119Y-58004761D01*
X154247738Y-57909523D01*
X154247738Y-57814285D01*
X154200119Y-57719047D01*
X154104880Y-57671428D01*
X153866785Y-57671428D01*
X153771547Y-57623809D01*
X153438214Y-57385714D02*
X153057261Y-57385714D01*
X153295357Y-57052380D02*
X153295357Y-57909523D01*
X153247738Y-58004761D01*
X153152500Y-58052380D01*
X153057261Y-58052380D01*
X152723928Y-58052380D02*
X152723928Y-57385714D01*
X152723928Y-57052380D02*
X152771547Y-57100000D01*
X152723928Y-57147619D01*
X152676309Y-57100000D01*
X152723928Y-57052380D01*
X152723928Y-57147619D01*
X152104880Y-58052380D02*
X152200119Y-58004761D01*
X152247738Y-57957142D01*
X152295357Y-57861904D01*
X152295357Y-57576190D01*
X152247738Y-57480952D01*
X152200119Y-57433333D01*
X152104880Y-57385714D01*
X151962023Y-57385714D01*
X151866785Y-57433333D01*
X151819166Y-57480952D01*
X151771547Y-57576190D01*
X151771547Y-57861904D01*
X151819166Y-57957142D01*
X151866785Y-58004761D01*
X151962023Y-58052380D01*
X152104880Y-58052380D01*
X151342976Y-57385714D02*
X151342976Y-58052380D01*
X151342976Y-57480952D02*
X151295357Y-57433333D01*
X151200119Y-57385714D01*
X151057261Y-57385714D01*
X150962023Y-57433333D01*
X150914404Y-57528571D01*
X150914404Y-58052380D01*
X149342976Y-57528571D02*
X149200119Y-57576190D01*
X149152500Y-57623809D01*
X149104880Y-57719047D01*
X149104880Y-57861904D01*
X149152500Y-57957142D01*
X149200119Y-58004761D01*
X149295357Y-58052380D01*
X149676309Y-58052380D01*
X149676309Y-57052380D01*
X149342976Y-57052380D01*
X149247738Y-57100000D01*
X149200119Y-57147619D01*
X149152500Y-57242857D01*
X149152500Y-57338095D01*
X149200119Y-57433333D01*
X149247738Y-57480952D01*
X149342976Y-57528571D01*
X149676309Y-57528571D01*
X148247738Y-58052380D02*
X148247738Y-57528571D01*
X148295357Y-57433333D01*
X148390595Y-57385714D01*
X148581071Y-57385714D01*
X148676309Y-57433333D01*
X148247738Y-58004761D02*
X148342976Y-58052380D01*
X148581071Y-58052380D01*
X148676309Y-58004761D01*
X148723928Y-57909523D01*
X148723928Y-57814285D01*
X148676309Y-57719047D01*
X148581071Y-57671428D01*
X148342976Y-57671428D01*
X148247738Y-57623809D01*
X147771547Y-58052380D02*
X147771547Y-57385714D01*
X147771547Y-57576190D02*
X147723928Y-57480952D01*
X147676309Y-57433333D01*
X147581071Y-57385714D01*
X147485833Y-57385714D01*
X147152500Y-58052380D02*
X147152500Y-57385714D01*
X147152500Y-57576190D02*
X147104880Y-57480952D01*
X147057261Y-57433333D01*
X146962023Y-57385714D01*
X146866785Y-57385714D01*
X146533452Y-58052380D02*
X146533452Y-57385714D01*
X146533452Y-57052380D02*
X146581071Y-57100000D01*
X146533452Y-57147619D01*
X146485833Y-57100000D01*
X146533452Y-57052380D01*
X146533452Y-57147619D01*
X145676309Y-58004761D02*
X145771547Y-58052380D01*
X145962023Y-58052380D01*
X146057261Y-58004761D01*
X146104880Y-57909523D01*
X146104880Y-57528571D01*
X146057261Y-57433333D01*
X145962023Y-57385714D01*
X145771547Y-57385714D01*
X145676309Y-57433333D01*
X145628690Y-57528571D01*
X145628690Y-57623809D01*
X146104880Y-57719047D01*
X145200119Y-58052380D02*
X145200119Y-57385714D01*
X145200119Y-57576190D02*
X145152500Y-57480952D01*
X145104880Y-57433333D01*
X145009642Y-57385714D01*
X144914404Y-57385714D01*
X144581071Y-57957142D02*
X144533452Y-58004761D01*
X144581071Y-58052380D01*
X144628690Y-58004761D01*
X144581071Y-57957142D01*
X144581071Y-58052380D01*
X144581071Y-57433333D02*
X144533452Y-57480952D01*
X144581071Y-57528571D01*
X144628690Y-57480952D01*
X144581071Y-57433333D01*
X144581071Y-57528571D01*
X156962023Y-58797619D02*
X156914404Y-58750000D01*
X156819166Y-58702380D01*
X156581071Y-58702380D01*
X156485833Y-58750000D01*
X156438214Y-58797619D01*
X156390595Y-58892857D01*
X156390595Y-58988095D01*
X156438214Y-59130952D01*
X157009642Y-59702380D01*
X156390595Y-59702380D01*
X156057261Y-58702380D02*
X155438214Y-58702380D01*
X155771547Y-59083333D01*
X155628690Y-59083333D01*
X155533452Y-59130952D01*
X155485833Y-59178571D01*
X155438214Y-59273809D01*
X155438214Y-59511904D01*
X155485833Y-59607142D01*
X155533452Y-59654761D01*
X155628690Y-59702380D01*
X155914404Y-59702380D01*
X156009642Y-59654761D01*
X156057261Y-59607142D01*
X154819166Y-58702380D02*
X154723928Y-58702380D01*
X154628690Y-58750000D01*
X154581071Y-58797619D01*
X154533452Y-58892857D01*
X154485833Y-59083333D01*
X154485833Y-59321428D01*
X154533452Y-59511904D01*
X154581071Y-59607142D01*
X154628690Y-59654761D01*
X154723928Y-59702380D01*
X154819166Y-59702380D01*
X154914404Y-59654761D01*
X154962023Y-59607142D01*
X155009642Y-59511904D01*
X155057261Y-59321428D01*
X155057261Y-59083333D01*
X155009642Y-58892857D01*
X154962023Y-58797619D01*
X154914404Y-58750000D01*
X154819166Y-58702380D01*
X154200119Y-58702380D02*
X153866785Y-59702380D01*
X153533452Y-58702380D01*
X152485833Y-59654761D02*
X152342976Y-59702380D01*
X152104880Y-59702380D01*
X152009642Y-59654761D01*
X151962023Y-59607142D01*
X151914404Y-59511904D01*
X151914404Y-59416666D01*
X151962023Y-59321428D01*
X152009642Y-59273809D01*
X152104880Y-59226190D01*
X152295357Y-59178571D01*
X152390595Y-59130952D01*
X152438214Y-59083333D01*
X152485833Y-58988095D01*
X152485833Y-58892857D01*
X152438214Y-58797619D01*
X152390595Y-58750000D01*
X152295357Y-58702380D01*
X152057261Y-58702380D01*
X151914404Y-58750000D01*
X151485833Y-59702380D02*
X151485833Y-59035714D01*
X151485833Y-58702380D02*
X151533452Y-58750000D01*
X151485833Y-58797619D01*
X151438214Y-58750000D01*
X151485833Y-58702380D01*
X151485833Y-58797619D01*
X150581071Y-59702380D02*
X150581071Y-58702380D01*
X150581071Y-59654761D02*
X150676309Y-59702380D01*
X150866785Y-59702380D01*
X150962023Y-59654761D01*
X151009642Y-59607142D01*
X151057261Y-59511904D01*
X151057261Y-59226190D01*
X151009642Y-59130952D01*
X150962023Y-59083333D01*
X150866785Y-59035714D01*
X150676309Y-59035714D01*
X150581071Y-59083333D01*
X149723928Y-59654761D02*
X149819166Y-59702380D01*
X150009642Y-59702380D01*
X150104880Y-59654761D01*
X150152500Y-59559523D01*
X150152500Y-59178571D01*
X150104880Y-59083333D01*
X150009642Y-59035714D01*
X149819166Y-59035714D01*
X149723928Y-59083333D01*
X149676309Y-59178571D01*
X149676309Y-59273809D01*
X150152500Y-59369047D01*
X148485833Y-59321428D02*
X147723928Y-59321428D01*
X146009642Y-58702380D02*
X146485833Y-58702380D01*
X146533452Y-59178571D01*
X146485833Y-59130952D01*
X146390595Y-59083333D01*
X146152500Y-59083333D01*
X146057261Y-59130952D01*
X146009642Y-59178571D01*
X145962023Y-59273809D01*
X145962023Y-59511904D01*
X146009642Y-59607142D01*
X146057261Y-59654761D01*
X146152500Y-59702380D01*
X146390595Y-59702380D01*
X146485833Y-59654761D01*
X146533452Y-59607142D01*
X145533452Y-59702380D02*
X145533452Y-59035714D01*
X145533452Y-59130952D02*
X145485833Y-59083333D01*
X145390595Y-59035714D01*
X145247738Y-59035714D01*
X145152500Y-59083333D01*
X145104880Y-59178571D01*
X145104880Y-59702380D01*
X145104880Y-59178571D02*
X145057261Y-59083333D01*
X144962023Y-59035714D01*
X144819166Y-59035714D01*
X144723928Y-59083333D01*
X144676309Y-59178571D01*
X144676309Y-59702380D01*
X144200119Y-59702380D02*
X144200119Y-59035714D01*
X144200119Y-59130952D02*
X144152500Y-59083333D01*
X144057261Y-59035714D01*
X143914404Y-59035714D01*
X143819166Y-59083333D01*
X143771547Y-59178571D01*
X143771547Y-59702380D01*
X143771547Y-59178571D02*
X143723928Y-59083333D01*
X143628690Y-59035714D01*
X143485833Y-59035714D01*
X143390595Y-59083333D01*
X143342976Y-59178571D01*
X143342976Y-59702380D01*
X156962023Y-61304761D02*
X156819166Y-61352380D01*
X156581071Y-61352380D01*
X156485833Y-61304761D01*
X156438214Y-61257142D01*
X156390595Y-61161904D01*
X156390595Y-61066666D01*
X156438214Y-60971428D01*
X156485833Y-60923809D01*
X156581071Y-60876190D01*
X156771547Y-60828571D01*
X156866785Y-60780952D01*
X156914404Y-60733333D01*
X156962023Y-60638095D01*
X156962023Y-60542857D01*
X156914404Y-60447619D01*
X156866785Y-60400000D01*
X156771547Y-60352380D01*
X156533452Y-60352380D01*
X156390595Y-60400000D01*
X155581071Y-61304761D02*
X155676309Y-61352380D01*
X155866785Y-61352380D01*
X155962023Y-61304761D01*
X156009642Y-61209523D01*
X156009642Y-60828571D01*
X155962023Y-60733333D01*
X155866785Y-60685714D01*
X155676309Y-60685714D01*
X155581071Y-60733333D01*
X155533452Y-60828571D01*
X155533452Y-60923809D01*
X156009642Y-61019047D01*
X154676309Y-61304761D02*
X154771547Y-61352380D01*
X154962023Y-61352380D01*
X155057261Y-61304761D01*
X155104880Y-61257142D01*
X155152500Y-61161904D01*
X155152500Y-60876190D01*
X155104880Y-60780952D01*
X155057261Y-60733333D01*
X154962023Y-60685714D01*
X154771547Y-60685714D01*
X154676309Y-60733333D01*
X154104880Y-61352380D02*
X154200119Y-61304761D01*
X154247738Y-61257142D01*
X154295357Y-61161904D01*
X154295357Y-60876190D01*
X154247738Y-60780952D01*
X154200119Y-60733333D01*
X154104880Y-60685714D01*
X153962023Y-60685714D01*
X153866785Y-60733333D01*
X153819166Y-60780952D01*
X153771547Y-60876190D01*
X153771547Y-61161904D01*
X153819166Y-61257142D01*
X153866785Y-61304761D01*
X153962023Y-61352380D01*
X154104880Y-61352380D01*
X153342976Y-60685714D02*
X153342976Y-61352380D01*
X153342976Y-60780952D02*
X153295357Y-60733333D01*
X153200119Y-60685714D01*
X153057261Y-60685714D01*
X152962023Y-60733333D01*
X152914404Y-60828571D01*
X152914404Y-61352380D01*
X152009642Y-61352380D02*
X152009642Y-60352380D01*
X152009642Y-61304761D02*
X152104880Y-61352380D01*
X152295357Y-61352380D01*
X152390595Y-61304761D01*
X152438214Y-61257142D01*
X152485833Y-61161904D01*
X152485833Y-60876190D01*
X152438214Y-60780952D01*
X152390595Y-60733333D01*
X152295357Y-60685714D01*
X152104880Y-60685714D01*
X152009642Y-60733333D01*
X151104880Y-61352380D02*
X151104880Y-60828571D01*
X151152500Y-60733333D01*
X151247738Y-60685714D01*
X151438214Y-60685714D01*
X151533452Y-60733333D01*
X151104880Y-61304761D02*
X151200119Y-61352380D01*
X151438214Y-61352380D01*
X151533452Y-61304761D01*
X151581071Y-61209523D01*
X151581071Y-61114285D01*
X151533452Y-61019047D01*
X151438214Y-60971428D01*
X151200119Y-60971428D01*
X151104880Y-60923809D01*
X150628690Y-61352380D02*
X150628690Y-60685714D01*
X150628690Y-60876190D02*
X150581071Y-60780952D01*
X150533452Y-60733333D01*
X150438214Y-60685714D01*
X150342976Y-60685714D01*
X150104880Y-60685714D02*
X149866785Y-61352380D01*
X149628690Y-60685714D02*
X149866785Y-61352380D01*
X149962023Y-61590476D01*
X150009642Y-61638095D01*
X150104880Y-61685714D01*
X148533452Y-61304761D02*
X148390595Y-61352380D01*
X148152500Y-61352380D01*
X148057261Y-61304761D01*
X148009642Y-61257142D01*
X147962023Y-61161904D01*
X147962023Y-61066666D01*
X148009642Y-60971428D01*
X148057261Y-60923809D01*
X148152500Y-60876190D01*
X148342976Y-60828571D01*
X148438214Y-60780952D01*
X148485833Y-60733333D01*
X148533452Y-60638095D01*
X148533452Y-60542857D01*
X148485833Y-60447619D01*
X148438214Y-60400000D01*
X148342976Y-60352380D01*
X148104880Y-60352380D01*
X147962023Y-60400000D01*
X147533452Y-61352380D02*
X147533452Y-60685714D01*
X147533452Y-60352380D02*
X147581071Y-60400000D01*
X147533452Y-60447619D01*
X147485833Y-60400000D01*
X147533452Y-60352380D01*
X147533452Y-60447619D01*
X146628690Y-61352380D02*
X146628690Y-60352380D01*
X146628690Y-61304761D02*
X146723928Y-61352380D01*
X146914404Y-61352380D01*
X147009642Y-61304761D01*
X147057261Y-61257142D01*
X147104880Y-61161904D01*
X147104880Y-60876190D01*
X147057261Y-60780952D01*
X147009642Y-60733333D01*
X146914404Y-60685714D01*
X146723928Y-60685714D01*
X146628690Y-60733333D01*
X145771547Y-61304761D02*
X145866785Y-61352380D01*
X146057261Y-61352380D01*
X146152500Y-61304761D01*
X146200119Y-61209523D01*
X146200119Y-60828571D01*
X146152500Y-60733333D01*
X146057261Y-60685714D01*
X145866785Y-60685714D01*
X145771547Y-60733333D01*
X145723928Y-60828571D01*
X145723928Y-60923809D01*
X146200119Y-61019047D01*
X144676309Y-60685714D02*
X144295357Y-60685714D01*
X144533452Y-60352380D02*
X144533452Y-61209523D01*
X144485833Y-61304761D01*
X144390595Y-61352380D01*
X144295357Y-61352380D01*
X143819166Y-61352380D02*
X143914404Y-61304761D01*
X143962023Y-61257142D01*
X144009642Y-61161904D01*
X144009642Y-60876190D01*
X143962023Y-60780952D01*
X143914404Y-60733333D01*
X143819166Y-60685714D01*
X143676309Y-60685714D01*
X143581071Y-60733333D01*
X143533452Y-60780952D01*
X143485833Y-60876190D01*
X143485833Y-61161904D01*
X143533452Y-61257142D01*
X143581071Y-61304761D01*
X143676309Y-61352380D01*
X143819166Y-61352380D01*
X142295357Y-60828571D02*
X141962023Y-60828571D01*
X141819166Y-61352380D02*
X142295357Y-61352380D01*
X142295357Y-60352380D01*
X141819166Y-60352380D01*
X140962023Y-61352380D02*
X140962023Y-60828571D01*
X141009642Y-60733333D01*
X141104880Y-60685714D01*
X141295357Y-60685714D01*
X141390595Y-60733333D01*
X140962023Y-61304761D02*
X141057261Y-61352380D01*
X141295357Y-61352380D01*
X141390595Y-61304761D01*
X141438214Y-61209523D01*
X141438214Y-61114285D01*
X141390595Y-61019047D01*
X141295357Y-60971428D01*
X141057261Y-60971428D01*
X140962023Y-60923809D01*
X140485833Y-61352380D02*
X140485833Y-60685714D01*
X140485833Y-60876190D02*
X140438214Y-60780952D01*
X140390595Y-60733333D01*
X140295357Y-60685714D01*
X140200119Y-60685714D01*
X140009642Y-60685714D02*
X139628690Y-60685714D01*
X139866785Y-60352380D02*
X139866785Y-61209523D01*
X139819166Y-61304761D01*
X139723928Y-61352380D01*
X139628690Y-61352380D01*
X139295357Y-61352380D02*
X139295357Y-60352380D01*
X138866785Y-61352380D02*
X138866785Y-60828571D01*
X138914404Y-60733333D01*
X139009642Y-60685714D01*
X139152500Y-60685714D01*
X139247738Y-60733333D01*
X139295357Y-60780952D01*
X137628690Y-60971428D02*
X136866785Y-60971428D01*
X135723928Y-60352380D02*
X135104880Y-60352380D01*
X135438214Y-60733333D01*
X135295357Y-60733333D01*
X135200119Y-60780952D01*
X135152500Y-60828571D01*
X135104880Y-60923809D01*
X135104880Y-61161904D01*
X135152500Y-61257142D01*
X135200119Y-61304761D01*
X135295357Y-61352380D01*
X135581071Y-61352380D01*
X135676309Y-61304761D01*
X135723928Y-61257142D01*
X134676309Y-61352380D02*
X134676309Y-60685714D01*
X134676309Y-60780952D02*
X134628690Y-60733333D01*
X134533452Y-60685714D01*
X134390595Y-60685714D01*
X134295357Y-60733333D01*
X134247738Y-60828571D01*
X134247738Y-61352380D01*
X134247738Y-60828571D02*
X134200119Y-60733333D01*
X134104880Y-60685714D01*
X133962023Y-60685714D01*
X133866785Y-60733333D01*
X133819166Y-60828571D01*
X133819166Y-61352380D01*
X133342976Y-61352380D02*
X133342976Y-60685714D01*
X133342976Y-60780952D02*
X133295357Y-60733333D01*
X133200119Y-60685714D01*
X133057261Y-60685714D01*
X132962023Y-60733333D01*
X132914404Y-60828571D01*
X132914404Y-61352380D01*
X132914404Y-60828571D02*
X132866785Y-60733333D01*
X132771547Y-60685714D01*
X132628690Y-60685714D01*
X132533452Y-60733333D01*
X132485833Y-60828571D01*
X132485833Y-61352380D01*
X230250000Y-71750000D02*
G75*
G02X230250000Y-62250000I1750000J4750000D01*
G01*
X233750000Y-62250000D02*
G75*
G02X233750000Y-71750000I-1750000J-4750000D01*
G01*
X230250000Y-71750000D02*
X233750000Y-71750000D01*
X230250000Y-62250000D02*
X233750000Y-62250000D01*
X257702380Y-78833333D02*
X256702380Y-78833333D01*
X256702380Y-79214285D01*
X256750000Y-79309523D01*
X256797619Y-79357142D01*
X256892857Y-79404761D01*
X257035714Y-79404761D01*
X257130952Y-79357142D01*
X257178571Y-79309523D01*
X257226190Y-79214285D01*
X257226190Y-78833333D01*
X257607142Y-80404761D02*
X257654761Y-80357142D01*
X257702380Y-80214285D01*
X257702380Y-80119047D01*
X257654761Y-79976190D01*
X257559523Y-79880952D01*
X257464285Y-79833333D01*
X257273809Y-79785714D01*
X257130952Y-79785714D01*
X256940476Y-79833333D01*
X256845238Y-79880952D01*
X256750000Y-79976190D01*
X256702380Y-80119047D01*
X256702380Y-80214285D01*
X256750000Y-80357142D01*
X256797619Y-80404761D01*
X257178571Y-81166666D02*
X257226190Y-81309523D01*
X257273809Y-81357142D01*
X257369047Y-81404761D01*
X257511904Y-81404761D01*
X257607142Y-81357142D01*
X257654761Y-81309523D01*
X257702380Y-81214285D01*
X257702380Y-80833333D01*
X256702380Y-80833333D01*
X256702380Y-81166666D01*
X256750000Y-81261904D01*
X256797619Y-81309523D01*
X256892857Y-81357142D01*
X256988095Y-81357142D01*
X257083333Y-81309523D01*
X257130952Y-81261904D01*
X257178571Y-81166666D01*
X257178571Y-80833333D01*
X257654761Y-82547619D02*
X257702380Y-82690476D01*
X257702380Y-82928571D01*
X257654761Y-83023809D01*
X257607142Y-83071428D01*
X257511904Y-83119047D01*
X257416666Y-83119047D01*
X257321428Y-83071428D01*
X257273809Y-83023809D01*
X257226190Y-82928571D01*
X257178571Y-82738095D01*
X257130952Y-82642857D01*
X257083333Y-82595238D01*
X256988095Y-82547619D01*
X256892857Y-82547619D01*
X256797619Y-82595238D01*
X256750000Y-82642857D01*
X256702380Y-82738095D01*
X256702380Y-82976190D01*
X256750000Y-83119047D01*
X257654761Y-83928571D02*
X257702380Y-83833333D01*
X257702380Y-83642857D01*
X257654761Y-83547619D01*
X257559523Y-83500000D01*
X257178571Y-83500000D01*
X257083333Y-83547619D01*
X257035714Y-83642857D01*
X257035714Y-83833333D01*
X257083333Y-83928571D01*
X257178571Y-83976190D01*
X257273809Y-83976190D01*
X257369047Y-83500000D01*
X257702380Y-84404761D02*
X257035714Y-84404761D01*
X257226190Y-84404761D02*
X257130952Y-84452380D01*
X257083333Y-84500000D01*
X257035714Y-84595238D01*
X257035714Y-84690476D01*
X257702380Y-85023809D02*
X257035714Y-85023809D01*
X256702380Y-85023809D02*
X256750000Y-84976190D01*
X256797619Y-85023809D01*
X256750000Y-85071428D01*
X256702380Y-85023809D01*
X256797619Y-85023809D01*
X257702380Y-85928571D02*
X257178571Y-85928571D01*
X257083333Y-85880952D01*
X257035714Y-85785714D01*
X257035714Y-85595238D01*
X257083333Y-85500000D01*
X257654761Y-85928571D02*
X257702380Y-85833333D01*
X257702380Y-85595238D01*
X257654761Y-85500000D01*
X257559523Y-85452380D01*
X257464285Y-85452380D01*
X257369047Y-85500000D01*
X257321428Y-85595238D01*
X257321428Y-85833333D01*
X257273809Y-85928571D01*
X257702380Y-86547619D02*
X257654761Y-86452380D01*
X257559523Y-86404761D01*
X256702380Y-86404761D01*
X257702380Y-87690476D02*
X256702380Y-87690476D01*
X257702380Y-88261904D01*
X256702380Y-88261904D01*
X257702380Y-88880952D02*
X257654761Y-88785714D01*
X257607142Y-88738095D01*
X257511904Y-88690476D01*
X257226190Y-88690476D01*
X257130952Y-88738095D01*
X257083333Y-88785714D01*
X257035714Y-88880952D01*
X257035714Y-89023809D01*
X257083333Y-89119047D01*
X257130952Y-89166666D01*
X257226190Y-89214285D01*
X257511904Y-89214285D01*
X257607142Y-89166666D01*
X257654761Y-89119047D01*
X257702380Y-89023809D01*
X257702380Y-88880952D01*
X257607142Y-89642857D02*
X257654761Y-89690476D01*
X257702380Y-89642857D01*
X257654761Y-89595238D01*
X257607142Y-89642857D01*
X257702380Y-89642857D01*
X257607142Y-90119047D02*
X257654761Y-90166666D01*
X257702380Y-90119047D01*
X257654761Y-90071428D01*
X257607142Y-90119047D01*
X257702380Y-90119047D01*
X257083333Y-90119047D02*
X257130952Y-90166666D01*
X257178571Y-90119047D01*
X257130952Y-90071428D01*
X257083333Y-90119047D01*
X257178571Y-90119047D01*
X256702380Y-91642857D02*
X257416666Y-91642857D01*
X257559523Y-91595238D01*
X257654761Y-91500000D01*
X257702380Y-91357142D01*
X257702380Y-91261904D01*
X257702380Y-92595238D02*
X257702380Y-92119047D01*
X256702380Y-92119047D01*
X257607142Y-93500000D02*
X257654761Y-93452380D01*
X257702380Y-93309523D01*
X257702380Y-93214285D01*
X257654761Y-93071428D01*
X257559523Y-92976190D01*
X257464285Y-92928571D01*
X257273809Y-92880952D01*
X257130952Y-92880952D01*
X256940476Y-92928571D01*
X256845238Y-92976190D01*
X256750000Y-93071428D01*
X256702380Y-93214285D01*
X256702380Y-93309523D01*
X256750000Y-93452380D01*
X256797619Y-93500000D01*
X256702380Y-94214285D02*
X257416666Y-94214285D01*
X257559523Y-94166666D01*
X257654761Y-94071428D01*
X257702380Y-93928571D01*
X257702380Y-93833333D01*
X257702380Y-95166666D02*
X257702380Y-94690476D01*
X256702380Y-94690476D01*
X257607142Y-96071428D02*
X257654761Y-96023809D01*
X257702380Y-95880952D01*
X257702380Y-95785714D01*
X257654761Y-95642857D01*
X257559523Y-95547619D01*
X257464285Y-95500000D01*
X257273809Y-95452380D01*
X257130952Y-95452380D01*
X256940476Y-95500000D01*
X256845238Y-95547619D01*
X256750000Y-95642857D01*
X256702380Y-95785714D01*
X256702380Y-95880952D01*
X256750000Y-96023809D01*
X256797619Y-96071428D01*
X256702380Y-96785714D02*
X257416666Y-96785714D01*
X257559523Y-96738095D01*
X257654761Y-96642857D01*
X257702380Y-96500000D01*
X257702380Y-96404761D01*
X257702380Y-97738095D02*
X257702380Y-97261904D01*
X256702380Y-97261904D01*
X257607142Y-98642857D02*
X257654761Y-98595238D01*
X257702380Y-98452380D01*
X257702380Y-98357142D01*
X257654761Y-98214285D01*
X257559523Y-98119047D01*
X257464285Y-98071428D01*
X257273809Y-98023809D01*
X257130952Y-98023809D01*
X256940476Y-98071428D01*
X256845238Y-98119047D01*
X256750000Y-98214285D01*
X256702380Y-98357142D01*
X256702380Y-98452380D01*
X256750000Y-98595238D01*
X256797619Y-98642857D01*
X256702380Y-99357142D02*
X257416666Y-99357142D01*
X257559523Y-99309523D01*
X257654761Y-99214285D01*
X257702380Y-99071428D01*
X257702380Y-98976190D01*
X257702380Y-100309523D02*
X257702380Y-99833333D01*
X256702380Y-99833333D01*
X257607142Y-101214285D02*
X257654761Y-101166666D01*
X257702380Y-101023809D01*
X257702380Y-100928571D01*
X257654761Y-100785714D01*
X257559523Y-100690476D01*
X257464285Y-100642857D01*
X257273809Y-100595238D01*
X257130952Y-100595238D01*
X256940476Y-100642857D01*
X256845238Y-100690476D01*
X256750000Y-100785714D01*
X256702380Y-100928571D01*
X256702380Y-101023809D01*
X256750000Y-101166666D01*
X256797619Y-101214285D01*
X240557261Y-108627380D02*
X239985833Y-108627380D01*
X240271547Y-109627380D02*
X240271547Y-108627380D01*
X239652500Y-109532142D02*
X239604880Y-109579761D01*
X239652500Y-109627380D01*
X239700119Y-109579761D01*
X239652500Y-109532142D01*
X239652500Y-109627380D01*
X238414404Y-109627380D02*
X238414404Y-108627380D01*
X238081071Y-109341666D01*
X237747738Y-108627380D01*
X237747738Y-109627380D01*
X236842976Y-108960714D02*
X236842976Y-109627380D01*
X237271547Y-108960714D02*
X237271547Y-109484523D01*
X237223928Y-109579761D01*
X237128690Y-109627380D01*
X236985833Y-109627380D01*
X236890595Y-109579761D01*
X236842976Y-109532142D01*
X236414404Y-109579761D02*
X236319166Y-109627380D01*
X236128690Y-109627380D01*
X236033452Y-109579761D01*
X235985833Y-109484523D01*
X235985833Y-109436904D01*
X236033452Y-109341666D01*
X236128690Y-109294047D01*
X236271547Y-109294047D01*
X236366785Y-109246428D01*
X236414404Y-109151190D01*
X236414404Y-109103571D01*
X236366785Y-109008333D01*
X236271547Y-108960714D01*
X236128690Y-108960714D01*
X236033452Y-109008333D01*
X235557261Y-109627380D02*
X235557261Y-108960714D01*
X235557261Y-108627380D02*
X235604880Y-108675000D01*
X235557261Y-108722619D01*
X235509642Y-108675000D01*
X235557261Y-108627380D01*
X235557261Y-108722619D01*
X234652500Y-109579761D02*
X234747738Y-109627380D01*
X234938214Y-109627380D01*
X235033452Y-109579761D01*
X235081071Y-109532142D01*
X235128690Y-109436904D01*
X235128690Y-109151190D01*
X235081071Y-109055952D01*
X235033452Y-109008333D01*
X234938214Y-108960714D01*
X234747738Y-108960714D01*
X234652500Y-109008333D01*
X233509642Y-108722619D02*
X233462023Y-108675000D01*
X233366785Y-108627380D01*
X233128690Y-108627380D01*
X233033452Y-108675000D01*
X232985833Y-108722619D01*
X232938214Y-108817857D01*
X232938214Y-108913095D01*
X232985833Y-109055952D01*
X233557261Y-109627380D01*
X232938214Y-109627380D01*
X232319166Y-108627380D02*
X232223928Y-108627380D01*
X232128690Y-108675000D01*
X232081071Y-108722619D01*
X232033452Y-108817857D01*
X231985833Y-109008333D01*
X231985833Y-109246428D01*
X232033452Y-109436904D01*
X232081071Y-109532142D01*
X232128690Y-109579761D01*
X232223928Y-109627380D01*
X232319166Y-109627380D01*
X232414404Y-109579761D01*
X232462023Y-109532142D01*
X232509642Y-109436904D01*
X232557261Y-109246428D01*
X232557261Y-109008333D01*
X232509642Y-108817857D01*
X232462023Y-108722619D01*
X232414404Y-108675000D01*
X232319166Y-108627380D01*
X231033452Y-109627380D02*
X231604880Y-109627380D01*
X231319166Y-109627380D02*
X231319166Y-108627380D01*
X231414404Y-108770238D01*
X231509642Y-108865476D01*
X231604880Y-108913095D01*
X230557261Y-109627380D02*
X230366785Y-109627380D01*
X230271547Y-109579761D01*
X230223928Y-109532142D01*
X230128690Y-109389285D01*
X230081071Y-109198809D01*
X230081071Y-108817857D01*
X230128690Y-108722619D01*
X230176309Y-108675000D01*
X230271547Y-108627380D01*
X230462023Y-108627380D01*
X230557261Y-108675000D01*
X230604880Y-108722619D01*
X230652500Y-108817857D01*
X230652500Y-109055952D01*
X230604880Y-109151190D01*
X230557261Y-109198809D01*
X230462023Y-109246428D01*
X230271547Y-109246428D01*
X230176309Y-109198809D01*
X230128690Y-109151190D01*
X230081071Y-109055952D01*
X240557261Y-110277380D02*
X240223928Y-111277380D01*
X239890595Y-110277380D01*
X239176309Y-111229761D02*
X239271547Y-111277380D01*
X239462023Y-111277380D01*
X239557261Y-111229761D01*
X239604880Y-111134523D01*
X239604880Y-110753571D01*
X239557261Y-110658333D01*
X239462023Y-110610714D01*
X239271547Y-110610714D01*
X239176309Y-110658333D01*
X239128690Y-110753571D01*
X239128690Y-110848809D01*
X239604880Y-110944047D01*
X238700119Y-111277380D02*
X238700119Y-110610714D01*
X238700119Y-110801190D02*
X238652500Y-110705952D01*
X238604880Y-110658333D01*
X238509642Y-110610714D01*
X238414404Y-110610714D01*
X238128690Y-111229761D02*
X238033452Y-111277380D01*
X237842976Y-111277380D01*
X237747738Y-111229761D01*
X237700119Y-111134523D01*
X237700119Y-111086904D01*
X237747738Y-110991666D01*
X237842976Y-110944047D01*
X237985833Y-110944047D01*
X238081071Y-110896428D01*
X238128690Y-110801190D01*
X238128690Y-110753571D01*
X238081071Y-110658333D01*
X237985833Y-110610714D01*
X237842976Y-110610714D01*
X237747738Y-110658333D01*
X237271547Y-111277380D02*
X237271547Y-110610714D01*
X237271547Y-110277380D02*
X237319166Y-110325000D01*
X237271547Y-110372619D01*
X237223928Y-110325000D01*
X237271547Y-110277380D01*
X237271547Y-110372619D01*
X236652500Y-111277380D02*
X236747738Y-111229761D01*
X236795357Y-111182142D01*
X236842976Y-111086904D01*
X236842976Y-110801190D01*
X236795357Y-110705952D01*
X236747738Y-110658333D01*
X236652500Y-110610714D01*
X236509642Y-110610714D01*
X236414404Y-110658333D01*
X236366785Y-110705952D01*
X236319166Y-110801190D01*
X236319166Y-111086904D01*
X236366785Y-111182142D01*
X236414404Y-111229761D01*
X236509642Y-111277380D01*
X236652500Y-111277380D01*
X235890595Y-110610714D02*
X235890595Y-111277380D01*
X235890595Y-110705952D02*
X235842976Y-110658333D01*
X235747738Y-110610714D01*
X235604880Y-110610714D01*
X235509642Y-110658333D01*
X235462023Y-110753571D01*
X235462023Y-111277380D01*
X233700119Y-111277380D02*
X234271547Y-111277380D01*
X233985833Y-111277380D02*
X233985833Y-110277380D01*
X234081071Y-110420238D01*
X234176309Y-110515476D01*
X234271547Y-110563095D01*
X233271547Y-111182142D02*
X233223928Y-111229761D01*
X233271547Y-111277380D01*
X233319166Y-111229761D01*
X233271547Y-111182142D01*
X233271547Y-111277380D01*
X232604880Y-110277380D02*
X232509642Y-110277380D01*
X232414404Y-110325000D01*
X232366785Y-110372619D01*
X232319166Y-110467857D01*
X232271547Y-110658333D01*
X232271547Y-110896428D01*
X232319166Y-111086904D01*
X232366785Y-111182142D01*
X232414404Y-111229761D01*
X232509642Y-111277380D01*
X232604880Y-111277380D01*
X232700119Y-111229761D01*
X232747738Y-111182142D01*
X232795357Y-111086904D01*
X232842976Y-110896428D01*
X232842976Y-110658333D01*
X232795357Y-110467857D01*
X232747738Y-110372619D01*
X232700119Y-110325000D01*
X232604880Y-110277380D01*
X240616785Y-107542857D02*
X240616785Y-106342857D01*
X240616785Y-106914285D02*
X239931071Y-106914285D01*
X239931071Y-107542857D02*
X239931071Y-106342857D01*
X239188214Y-107542857D02*
X239302500Y-107485714D01*
X239359642Y-107428571D01*
X239416785Y-107314285D01*
X239416785Y-106971428D01*
X239359642Y-106857142D01*
X239302500Y-106800000D01*
X239188214Y-106742857D01*
X239016785Y-106742857D01*
X238902500Y-106800000D01*
X238845357Y-106857142D01*
X238788214Y-106971428D01*
X238788214Y-107314285D01*
X238845357Y-107428571D01*
X238902500Y-107485714D01*
X239016785Y-107542857D01*
X239188214Y-107542857D01*
X238445357Y-106742857D02*
X237988214Y-106742857D01*
X238273928Y-106342857D02*
X238273928Y-107371428D01*
X238216785Y-107485714D01*
X238102500Y-107542857D01*
X237988214Y-107542857D01*
X236673928Y-107542857D02*
X236673928Y-106342857D01*
X236216785Y-106342857D01*
X236102500Y-106400000D01*
X236045357Y-106457142D01*
X235988214Y-106571428D01*
X235988214Y-106742857D01*
X236045357Y-106857142D01*
X236102500Y-106914285D01*
X236216785Y-106971428D01*
X236673928Y-106971428D01*
X235302500Y-107542857D02*
X235416785Y-107485714D01*
X235473928Y-107371428D01*
X235473928Y-106342857D01*
X234331071Y-107542857D02*
X234331071Y-106914285D01*
X234388214Y-106800000D01*
X234502500Y-106742857D01*
X234731071Y-106742857D01*
X234845357Y-106800000D01*
X234331071Y-107485714D02*
X234445357Y-107542857D01*
X234731071Y-107542857D01*
X234845357Y-107485714D01*
X234902500Y-107371428D01*
X234902500Y-107257142D01*
X234845357Y-107142857D01*
X234731071Y-107085714D01*
X234445357Y-107085714D01*
X234331071Y-107028571D01*
X233931071Y-106742857D02*
X233473928Y-106742857D01*
X233759642Y-106342857D02*
X233759642Y-107371428D01*
X233702500Y-107485714D01*
X233588214Y-107542857D01*
X233473928Y-107542857D01*
X232616785Y-107485714D02*
X232731071Y-107542857D01*
X232959642Y-107542857D01*
X233073928Y-107485714D01*
X233131071Y-107371428D01*
X233131071Y-106914285D01*
X233073928Y-106800000D01*
X232959642Y-106742857D01*
X232731071Y-106742857D01*
X232616785Y-106800000D01*
X232559642Y-106914285D01*
X232559642Y-107028571D01*
X233131071Y-107142857D01*
X231188214Y-107485714D02*
X231016785Y-107542857D01*
X230731071Y-107542857D01*
X230616785Y-107485714D01*
X230559642Y-107428571D01*
X230502500Y-107314285D01*
X230502500Y-107200000D01*
X230559642Y-107085714D01*
X230616785Y-107028571D01*
X230731071Y-106971428D01*
X230959642Y-106914285D01*
X231073928Y-106857142D01*
X231131071Y-106800000D01*
X231188214Y-106685714D01*
X231188214Y-106571428D01*
X231131071Y-106457142D01*
X231073928Y-106400000D01*
X230959642Y-106342857D01*
X230673928Y-106342857D01*
X230502500Y-106400000D01*
X229816785Y-107542857D02*
X229931071Y-107485714D01*
X229988214Y-107428571D01*
X230045357Y-107314285D01*
X230045357Y-106971428D01*
X229988214Y-106857142D01*
X229931071Y-106800000D01*
X229816785Y-106742857D01*
X229645357Y-106742857D01*
X229531071Y-106800000D01*
X229473928Y-106857142D01*
X229416785Y-106971428D01*
X229416785Y-107314285D01*
X229473928Y-107428571D01*
X229531071Y-107485714D01*
X229645357Y-107542857D01*
X229816785Y-107542857D01*
X228731071Y-107542857D02*
X228845357Y-107485714D01*
X228902500Y-107371428D01*
X228902500Y-106342857D01*
X227759642Y-107542857D02*
X227759642Y-106342857D01*
X227759642Y-107485714D02*
X227873928Y-107542857D01*
X228102500Y-107542857D01*
X228216785Y-107485714D01*
X228273928Y-107428571D01*
X228331071Y-107314285D01*
X228331071Y-106971428D01*
X228273928Y-106857142D01*
X228216785Y-106800000D01*
X228102500Y-106742857D01*
X227873928Y-106742857D01*
X227759642Y-106800000D01*
X226731071Y-107485714D02*
X226845357Y-107542857D01*
X227073928Y-107542857D01*
X227188214Y-107485714D01*
X227245357Y-107371428D01*
X227245357Y-106914285D01*
X227188214Y-106800000D01*
X227073928Y-106742857D01*
X226845357Y-106742857D01*
X226731071Y-106800000D01*
X226673928Y-106914285D01*
X226673928Y-107028571D01*
X227245357Y-107142857D01*
X226159642Y-107542857D02*
X226159642Y-106742857D01*
X226159642Y-106971428D02*
X226102500Y-106857142D01*
X226045357Y-106800000D01*
X225931071Y-106742857D01*
X225816785Y-106742857D01*
X225416785Y-107542857D02*
X225416785Y-106742857D01*
X225416785Y-106342857D02*
X225473928Y-106400000D01*
X225416785Y-106457142D01*
X225359642Y-106400000D01*
X225416785Y-106342857D01*
X225416785Y-106457142D01*
X224845357Y-106742857D02*
X224845357Y-107542857D01*
X224845357Y-106857142D02*
X224788214Y-106800000D01*
X224673928Y-106742857D01*
X224502500Y-106742857D01*
X224388214Y-106800000D01*
X224331071Y-106914285D01*
X224331071Y-107542857D01*
X223245357Y-106742857D02*
X223245357Y-107714285D01*
X223302500Y-107828571D01*
X223359642Y-107885714D01*
X223473928Y-107942857D01*
X223645357Y-107942857D01*
X223759642Y-107885714D01*
X223245357Y-107485714D02*
X223359642Y-107542857D01*
X223588214Y-107542857D01*
X223702500Y-107485714D01*
X223759642Y-107428571D01*
X223816785Y-107314285D01*
X223816785Y-106971428D01*
X223759642Y-106857142D01*
X223702500Y-106800000D01*
X223588214Y-106742857D01*
X223359642Y-106742857D01*
X223245357Y-106800000D01*
X221816785Y-107485714D02*
X221645357Y-107542857D01*
X221359642Y-107542857D01*
X221245357Y-107485714D01*
X221188214Y-107428571D01*
X221131071Y-107314285D01*
X221131071Y-107200000D01*
X221188214Y-107085714D01*
X221245357Y-107028571D01*
X221359642Y-106971428D01*
X221588214Y-106914285D01*
X221702500Y-106857142D01*
X221759642Y-106800000D01*
X221816785Y-106685714D01*
X221816785Y-106571428D01*
X221759642Y-106457142D01*
X221702500Y-106400000D01*
X221588214Y-106342857D01*
X221302500Y-106342857D01*
X221131071Y-106400000D01*
X220788214Y-106742857D02*
X220331071Y-106742857D01*
X220616785Y-106342857D02*
X220616785Y-107371428D01*
X220559642Y-107485714D01*
X220445357Y-107542857D01*
X220331071Y-107542857D01*
X219416785Y-107542857D02*
X219416785Y-106914285D01*
X219473928Y-106800000D01*
X219588214Y-106742857D01*
X219816785Y-106742857D01*
X219931071Y-106800000D01*
X219416785Y-107485714D02*
X219531071Y-107542857D01*
X219816785Y-107542857D01*
X219931071Y-107485714D01*
X219988214Y-107371428D01*
X219988214Y-107257142D01*
X219931071Y-107142857D01*
X219816785Y-107085714D01*
X219531071Y-107085714D01*
X219416785Y-107028571D01*
X219016785Y-106742857D02*
X218559642Y-106742857D01*
X218845357Y-106342857D02*
X218845357Y-107371428D01*
X218788214Y-107485714D01*
X218673928Y-107542857D01*
X218559642Y-107542857D01*
X218159642Y-107542857D02*
X218159642Y-106742857D01*
X218159642Y-106342857D02*
X218216785Y-106400000D01*
X218159642Y-106457142D01*
X218102500Y-106400000D01*
X218159642Y-106342857D01*
X218159642Y-106457142D01*
X217416785Y-107542857D02*
X217531071Y-107485714D01*
X217588214Y-107428571D01*
X217645357Y-107314285D01*
X217645357Y-106971428D01*
X217588214Y-106857142D01*
X217531071Y-106800000D01*
X217416785Y-106742857D01*
X217245357Y-106742857D01*
X217131071Y-106800000D01*
X217073928Y-106857142D01*
X217016785Y-106971428D01*
X217016785Y-107314285D01*
X217073928Y-107428571D01*
X217131071Y-107485714D01*
X217245357Y-107542857D01*
X217416785Y-107542857D01*
X216502500Y-106742857D02*
X216502500Y-107542857D01*
X216502500Y-106857142D02*
X216445357Y-106800000D01*
X216331071Y-106742857D01*
X216159642Y-106742857D01*
X216045357Y-106800000D01*
X215988214Y-106914285D01*
X215988214Y-107542857D01*
X213816785Y-107428571D02*
X213873928Y-107485714D01*
X214045357Y-107542857D01*
X214159642Y-107542857D01*
X214331071Y-107485714D01*
X214445357Y-107371428D01*
X214502500Y-107257142D01*
X214559642Y-107028571D01*
X214559642Y-106857142D01*
X214502500Y-106628571D01*
X214445357Y-106514285D01*
X214331071Y-106400000D01*
X214159642Y-106342857D01*
X214045357Y-106342857D01*
X213873928Y-106400000D01*
X213816785Y-106457142D01*
X213131071Y-107542857D02*
X213245357Y-107485714D01*
X213302500Y-107428571D01*
X213359642Y-107314285D01*
X213359642Y-106971428D01*
X213302500Y-106857142D01*
X213245357Y-106800000D01*
X213131071Y-106742857D01*
X212959642Y-106742857D01*
X212845357Y-106800000D01*
X212788214Y-106857142D01*
X212731071Y-106971428D01*
X212731071Y-107314285D01*
X212788214Y-107428571D01*
X212845357Y-107485714D01*
X212959642Y-107542857D01*
X213131071Y-107542857D01*
X212216785Y-106742857D02*
X212216785Y-107542857D01*
X212216785Y-106857142D02*
X212159642Y-106800000D01*
X212045357Y-106742857D01*
X211873928Y-106742857D01*
X211759642Y-106800000D01*
X211702500Y-106914285D01*
X211702500Y-107542857D01*
X211302500Y-106742857D02*
X210845357Y-106742857D01*
X211131071Y-106342857D02*
X211131071Y-107371428D01*
X211073928Y-107485714D01*
X210959642Y-107542857D01*
X210845357Y-107542857D01*
X210445357Y-107542857D02*
X210445357Y-106742857D01*
X210445357Y-106971428D02*
X210388214Y-106857142D01*
X210331071Y-106800000D01*
X210216785Y-106742857D01*
X210102500Y-106742857D01*
X209531071Y-107542857D02*
X209645357Y-107485714D01*
X209702500Y-107428571D01*
X209759642Y-107314285D01*
X209759642Y-106971428D01*
X209702500Y-106857142D01*
X209645357Y-106800000D01*
X209531071Y-106742857D01*
X209359642Y-106742857D01*
X209245357Y-106800000D01*
X209188214Y-106857142D01*
X209131071Y-106971428D01*
X209131071Y-107314285D01*
X209188214Y-107428571D01*
X209245357Y-107485714D01*
X209359642Y-107542857D01*
X209531071Y-107542857D01*
X208445357Y-107542857D02*
X208559642Y-107485714D01*
X208616785Y-107371428D01*
X208616785Y-106342857D01*
X207816785Y-107542857D02*
X207931071Y-107485714D01*
X207988214Y-107371428D01*
X207988214Y-106342857D01*
X206902500Y-107485714D02*
X207016785Y-107542857D01*
X207245357Y-107542857D01*
X207359642Y-107485714D01*
X207416785Y-107371428D01*
X207416785Y-106914285D01*
X207359642Y-106800000D01*
X207245357Y-106742857D01*
X207016785Y-106742857D01*
X206902500Y-106800000D01*
X206845357Y-106914285D01*
X206845357Y-107028571D01*
X207416785Y-107142857D01*
X206331071Y-107542857D02*
X206331071Y-106742857D01*
X206331071Y-106971428D02*
X206273928Y-106857142D01*
X206216785Y-106800000D01*
X206102500Y-106742857D01*
X205988214Y-106742857D01*
X198500000Y-50000000D02*
X258000000Y-50000000D01*
X258000000Y-50000000D02*
X260000000Y-52000000D01*
X82000000Y-130000000D02*
X258000000Y-130000000D01*
X195500000Y-53000000D02*
X198500000Y-50000000D01*
X182500000Y-53000000D02*
X195500000Y-53000000D01*
X179500000Y-50000000D02*
X182500000Y-53000000D01*
X80000000Y-128000000D02*
X82000000Y-130000000D01*
X260000000Y-128000000D02*
X258000000Y-130000000D01*
X82000000Y-50000000D02*
X80000000Y-52000000D01*
X179500000Y-50000000D02*
X82000000Y-50000000D01*
X260000000Y-128000000D02*
X260000000Y-52000000D01*
X80000000Y-52000000D02*
X80000000Y-128000000D01*
X219500000Y-75194050D02*
X219500000Y-76444049D01*
X219500000Y-57500001D02*
X219500000Y-58750000D01*
X227000001Y-57500001D02*
X219500000Y-57500001D01*
X226895108Y-76444049D02*
X219500000Y-76444049D01*
X226895108Y-76444049D02*
G75*
G03X227000001Y-57500001I5104892J9444049D01*
G01*
X211000000Y-59500000D02*
X213000000Y-59500000D01*
X211000000Y-61500000D02*
X211000000Y-60000000D01*
X211000000Y-60000000D02*
X211000000Y-59500000D01*
X211750000Y-74500000D02*
X211000000Y-73750000D01*
X211000000Y-74500000D02*
X211000000Y-72500000D01*
X211500000Y-74500000D02*
X211000000Y-74500000D01*
X213000000Y-74500000D02*
X211500000Y-74500000D01*
D11*
X172510000Y-73087221D02*
X172510000Y-73412779D01*
X171490000Y-73087221D02*
X171490000Y-73412779D01*
D10*
X199700000Y-60600000D02*
X178600000Y-60600000D01*
X199700000Y-60100000D02*
X199700000Y-60600000D01*
X200200000Y-54900000D02*
X197000000Y-53000000D01*
X200200000Y-59200000D02*
X200200000Y-54900000D01*
X177800000Y-54850000D02*
X181000000Y-53000000D01*
X177800000Y-59200000D02*
X177800000Y-54850000D01*
D11*
X194740000Y-67162779D02*
X194740000Y-66837221D01*
X195760000Y-67162779D02*
X195760000Y-66837221D01*
X192990000Y-67162779D02*
X192990000Y-66837221D01*
X194010000Y-67162779D02*
X194010000Y-66837221D01*
X199010000Y-63337221D02*
X199010000Y-63662779D01*
X197990000Y-63337221D02*
X197990000Y-63662779D01*
X196490000Y-63662779D02*
X196490000Y-63337221D01*
X197510000Y-63662779D02*
X197510000Y-63337221D01*
X181290000Y-63758578D02*
X181290000Y-63241422D01*
X182710000Y-63758578D02*
X182710000Y-63241422D01*
X179740000Y-63662779D02*
X179740000Y-63337221D01*
X180760000Y-63662779D02*
X180760000Y-63337221D01*
D10*
X216345238Y-58702380D02*
X216678571Y-58226190D01*
X216916666Y-58702380D02*
X216916666Y-57702380D01*
X216535714Y-57702380D01*
X216440476Y-57750000D01*
X216392857Y-57797619D01*
X216345238Y-57892857D01*
X216345238Y-58035714D01*
X216392857Y-58130952D01*
X216440476Y-58178571D01*
X216535714Y-58226190D01*
X216916666Y-58226190D01*
X216059523Y-57702380D02*
X215726190Y-58702380D01*
X215392857Y-57702380D01*
X215107142Y-57797619D02*
X215059523Y-57750000D01*
X214964285Y-57702380D01*
X214726190Y-57702380D01*
X214630952Y-57750000D01*
X214583333Y-57797619D01*
X214535714Y-57892857D01*
X214535714Y-57988095D01*
X214583333Y-58130952D01*
X215154761Y-58702380D01*
X214535714Y-58702380D01*
X171022380Y-72607142D02*
X170546190Y-72273809D01*
X171022380Y-72035714D02*
X170022380Y-72035714D01*
X170022380Y-72416666D01*
X170070000Y-72511904D01*
X170117619Y-72559523D01*
X170212857Y-72607142D01*
X170355714Y-72607142D01*
X170450952Y-72559523D01*
X170498571Y-72511904D01*
X170546190Y-72416666D01*
X170546190Y-72035714D01*
X171022380Y-73559523D02*
X171022380Y-72988095D01*
X171022380Y-73273809D02*
X170022380Y-73273809D01*
X170165238Y-73178571D01*
X170260476Y-73083333D01*
X170308095Y-72988095D01*
X170022380Y-74416666D02*
X170022380Y-74226190D01*
X170070000Y-74130952D01*
X170117619Y-74083333D01*
X170260476Y-73988095D01*
X170450952Y-73940476D01*
X170831904Y-73940476D01*
X170927142Y-73988095D01*
X170974761Y-74035714D01*
X171022380Y-74130952D01*
X171022380Y-74321428D01*
X170974761Y-74416666D01*
X170927142Y-74464285D01*
X170831904Y-74511904D01*
X170593809Y-74511904D01*
X170498571Y-74464285D01*
X170450952Y-74416666D01*
X170403333Y-74321428D01*
X170403333Y-74130952D01*
X170450952Y-74035714D01*
X170498571Y-73988095D01*
X170593809Y-73940476D01*
X173622380Y-65857142D02*
X173146190Y-65523809D01*
X173622380Y-65285714D02*
X172622380Y-65285714D01*
X172622380Y-65666666D01*
X172670000Y-65761904D01*
X172717619Y-65809523D01*
X172812857Y-65857142D01*
X172955714Y-65857142D01*
X173050952Y-65809523D01*
X173098571Y-65761904D01*
X173146190Y-65666666D01*
X173146190Y-65285714D01*
X173622380Y-66809523D02*
X173622380Y-66238095D01*
X173622380Y-66523809D02*
X172622380Y-66523809D01*
X172765238Y-66428571D01*
X172860476Y-66333333D01*
X172908095Y-66238095D01*
X172622380Y-67714285D02*
X172622380Y-67238095D01*
X173098571Y-67190476D01*
X173050952Y-67238095D01*
X173003333Y-67333333D01*
X173003333Y-67571428D01*
X173050952Y-67666666D01*
X173098571Y-67714285D01*
X173193809Y-67761904D01*
X173431904Y-67761904D01*
X173527142Y-67714285D01*
X173574761Y-67666666D01*
X173622380Y-67571428D01*
X173622380Y-67333333D01*
X173574761Y-67238095D01*
X173527142Y-67190476D01*
X195785714Y-55202380D02*
X195785714Y-56011904D01*
X195738095Y-56107142D01*
X195690476Y-56154761D01*
X195595238Y-56202380D01*
X195404761Y-56202380D01*
X195309523Y-56154761D01*
X195261904Y-56107142D01*
X195214285Y-56011904D01*
X195214285Y-55202380D01*
X194214285Y-55250000D02*
X194309523Y-55202380D01*
X194452380Y-55202380D01*
X194595238Y-55250000D01*
X194690476Y-55345238D01*
X194738095Y-55440476D01*
X194785714Y-55630952D01*
X194785714Y-55773809D01*
X194738095Y-55964285D01*
X194690476Y-56059523D01*
X194595238Y-56154761D01*
X194452380Y-56202380D01*
X194357142Y-56202380D01*
X194214285Y-56154761D01*
X194166666Y-56107142D01*
X194166666Y-55773809D01*
X194357142Y-55773809D01*
X193738095Y-55821428D02*
X192976190Y-55821428D01*
X192547619Y-55297619D02*
X192500000Y-55250000D01*
X192404761Y-55202380D01*
X192166666Y-55202380D01*
X192071428Y-55250000D01*
X192023809Y-55297619D01*
X191976190Y-55392857D01*
X191976190Y-55488095D01*
X192023809Y-55630952D01*
X192595238Y-56202380D01*
X191976190Y-56202380D01*
X191404761Y-55630952D02*
X191500000Y-55583333D01*
X191547619Y-55535714D01*
X191595238Y-55440476D01*
X191595238Y-55392857D01*
X191547619Y-55297619D01*
X191500000Y-55250000D01*
X191404761Y-55202380D01*
X191214285Y-55202380D01*
X191119047Y-55250000D01*
X191071428Y-55297619D01*
X191023809Y-55392857D01*
X191023809Y-55440476D01*
X191071428Y-55535714D01*
X191119047Y-55583333D01*
X191214285Y-55630952D01*
X191404761Y-55630952D01*
X191500000Y-55678571D01*
X191547619Y-55726190D01*
X191595238Y-55821428D01*
X191595238Y-56011904D01*
X191547619Y-56107142D01*
X191500000Y-56154761D01*
X191404761Y-56202380D01*
X191214285Y-56202380D01*
X191119047Y-56154761D01*
X191071428Y-56107142D01*
X191023809Y-56011904D01*
X191023809Y-55821428D01*
X191071428Y-55726190D01*
X191119047Y-55678571D01*
X191214285Y-55630952D01*
X190166666Y-55202380D02*
X190357142Y-55202380D01*
X190452380Y-55250000D01*
X190500000Y-55297619D01*
X190595238Y-55440476D01*
X190642857Y-55630952D01*
X190642857Y-56011904D01*
X190595238Y-56107142D01*
X190547619Y-56154761D01*
X190452380Y-56202380D01*
X190261904Y-56202380D01*
X190166666Y-56154761D01*
X190119047Y-56107142D01*
X190071428Y-56011904D01*
X190071428Y-55773809D01*
X190119047Y-55678571D01*
X190166666Y-55630952D01*
X190261904Y-55583333D01*
X190452380Y-55583333D01*
X190547619Y-55630952D01*
X190595238Y-55678571D01*
X190642857Y-55773809D01*
X189214285Y-55535714D02*
X189214285Y-56202380D01*
X189452380Y-55154761D02*
X189690476Y-55869047D01*
X189071428Y-55869047D01*
X188690476Y-56202380D02*
X188690476Y-55202380D01*
X188690476Y-55678571D02*
X188119047Y-55678571D01*
X188119047Y-56202380D02*
X188119047Y-55202380D01*
X187690476Y-56154761D02*
X187547619Y-56202380D01*
X187309523Y-56202380D01*
X187214285Y-56154761D01*
X187166666Y-56107142D01*
X187119047Y-56011904D01*
X187119047Y-55916666D01*
X187166666Y-55821428D01*
X187214285Y-55773809D01*
X187309523Y-55726190D01*
X187500000Y-55678571D01*
X187595238Y-55630952D01*
X187642857Y-55583333D01*
X187690476Y-55488095D01*
X187690476Y-55392857D01*
X187642857Y-55297619D01*
X187595238Y-55250000D01*
X187500000Y-55202380D01*
X187261904Y-55202380D01*
X187119047Y-55250000D01*
X186785714Y-55202380D02*
X186547619Y-56202380D01*
X186357142Y-55488095D01*
X186166666Y-56202380D01*
X185928571Y-55202380D01*
X185547619Y-55678571D02*
X185214285Y-55678571D01*
X185071428Y-56202380D02*
X185547619Y-56202380D01*
X185547619Y-55202380D01*
X185071428Y-55202380D01*
X184119047Y-55250000D02*
X184214285Y-55202380D01*
X184357142Y-55202380D01*
X184500000Y-55250000D01*
X184595238Y-55345238D01*
X184642857Y-55440476D01*
X184690476Y-55630952D01*
X184690476Y-55773809D01*
X184642857Y-55964285D01*
X184595238Y-56059523D01*
X184500000Y-56154761D01*
X184357142Y-56202380D01*
X184261904Y-56202380D01*
X184119047Y-56154761D01*
X184071428Y-56107142D01*
X184071428Y-55773809D01*
X184261904Y-55773809D01*
X183452380Y-55202380D02*
X183357142Y-55202380D01*
X183261904Y-55250000D01*
X183214285Y-55297619D01*
X183166666Y-55392857D01*
X183119047Y-55583333D01*
X183119047Y-55821428D01*
X183166666Y-56011904D01*
X183214285Y-56107142D01*
X183261904Y-56154761D01*
X183357142Y-56202380D01*
X183452380Y-56202380D01*
X183547619Y-56154761D01*
X183595238Y-56107142D01*
X183642857Y-56011904D01*
X183690476Y-55821428D01*
X183690476Y-55583333D01*
X183642857Y-55392857D01*
X183595238Y-55297619D01*
X183547619Y-55250000D01*
X183452380Y-55202380D01*
X182166666Y-56202380D02*
X182738095Y-56202380D01*
X182452380Y-56202380D02*
X182452380Y-55202380D01*
X182547619Y-55345238D01*
X182642857Y-55440476D01*
X182738095Y-55488095D01*
X189761904Y-53452380D02*
X189761904Y-54261904D01*
X189714285Y-54357142D01*
X189666666Y-54404761D01*
X189571428Y-54452380D01*
X189380952Y-54452380D01*
X189285714Y-54404761D01*
X189238095Y-54357142D01*
X189190476Y-54261904D01*
X189190476Y-53452380D01*
X188285714Y-53785714D02*
X188285714Y-54452380D01*
X188523809Y-53404761D02*
X188761904Y-54119047D01*
X188142857Y-54119047D01*
X185202380Y-62833333D02*
X184726190Y-62500000D01*
X185202380Y-62261904D02*
X184202380Y-62261904D01*
X184202380Y-62642857D01*
X184250000Y-62738095D01*
X184297619Y-62785714D01*
X184392857Y-62833333D01*
X184535714Y-62833333D01*
X184630952Y-62785714D01*
X184678571Y-62738095D01*
X184726190Y-62642857D01*
X184726190Y-62261904D01*
X184202380Y-63166666D02*
X184202380Y-63785714D01*
X184583333Y-63452380D01*
X184583333Y-63595238D01*
X184630952Y-63690476D01*
X184678571Y-63738095D01*
X184773809Y-63785714D01*
X185011904Y-63785714D01*
X185107142Y-63738095D01*
X185154761Y-63690476D01*
X185202380Y-63595238D01*
X185202380Y-63309523D01*
X185154761Y-63214285D01*
X185107142Y-63166666D01*
X195607142Y-69357142D02*
X195654761Y-69309523D01*
X195702380Y-69166666D01*
X195702380Y-69071428D01*
X195654761Y-68928571D01*
X195559523Y-68833333D01*
X195464285Y-68785714D01*
X195273809Y-68738095D01*
X195130952Y-68738095D01*
X194940476Y-68785714D01*
X194845238Y-68833333D01*
X194750000Y-68928571D01*
X194702380Y-69071428D01*
X194702380Y-69166666D01*
X194750000Y-69309523D01*
X194797619Y-69357142D01*
X195702380Y-70309523D02*
X195702380Y-69738095D01*
X195702380Y-70023809D02*
X194702380Y-70023809D01*
X194845238Y-69928571D01*
X194940476Y-69833333D01*
X194988095Y-69738095D01*
X194797619Y-70690476D02*
X194750000Y-70738095D01*
X194702380Y-70833333D01*
X194702380Y-71071428D01*
X194750000Y-71166666D01*
X194797619Y-71214285D01*
X194892857Y-71261904D01*
X194988095Y-71261904D01*
X195130952Y-71214285D01*
X195702380Y-70642857D01*
X195702380Y-71261904D01*
X193857142Y-69357142D02*
X193904761Y-69309523D01*
X193952380Y-69166666D01*
X193952380Y-69071428D01*
X193904761Y-68928571D01*
X193809523Y-68833333D01*
X193714285Y-68785714D01*
X193523809Y-68738095D01*
X193380952Y-68738095D01*
X193190476Y-68785714D01*
X193095238Y-68833333D01*
X193000000Y-68928571D01*
X192952380Y-69071428D01*
X192952380Y-69166666D01*
X193000000Y-69309523D01*
X193047619Y-69357142D01*
X193952380Y-70309523D02*
X193952380Y-69738095D01*
X193952380Y-70023809D02*
X192952380Y-70023809D01*
X193095238Y-69928571D01*
X193190476Y-69833333D01*
X193238095Y-69738095D01*
X193952380Y-71261904D02*
X193952380Y-70690476D01*
X193952380Y-70976190D02*
X192952380Y-70976190D01*
X193095238Y-70880952D01*
X193190476Y-70785714D01*
X193238095Y-70690476D01*
X194437142Y-62357142D02*
X194484761Y-62309523D01*
X194532380Y-62166666D01*
X194532380Y-62071428D01*
X194484761Y-61928571D01*
X194389523Y-61833333D01*
X194294285Y-61785714D01*
X194103809Y-61738095D01*
X193960952Y-61738095D01*
X193770476Y-61785714D01*
X193675238Y-61833333D01*
X193580000Y-61928571D01*
X193532380Y-62071428D01*
X193532380Y-62166666D01*
X193580000Y-62309523D01*
X193627619Y-62357142D01*
X194532380Y-63309523D02*
X194532380Y-62738095D01*
X194532380Y-63023809D02*
X193532380Y-63023809D01*
X193675238Y-62928571D01*
X193770476Y-62833333D01*
X193818095Y-62738095D01*
X193532380Y-63928571D02*
X193532380Y-64023809D01*
X193580000Y-64119047D01*
X193627619Y-64166666D01*
X193722857Y-64214285D01*
X193913333Y-64261904D01*
X194151428Y-64261904D01*
X194341904Y-64214285D01*
X194437142Y-64166666D01*
X194484761Y-64119047D01*
X194532380Y-64023809D01*
X194532380Y-63928571D01*
X194484761Y-63833333D01*
X194437142Y-63785714D01*
X194341904Y-63738095D01*
X194151428Y-63690476D01*
X193913333Y-63690476D01*
X193722857Y-63738095D01*
X193627619Y-63785714D01*
X193580000Y-63833333D01*
X193532380Y-63928571D01*
X192187142Y-62818333D02*
X192234761Y-62770714D01*
X192282380Y-62627857D01*
X192282380Y-62532619D01*
X192234761Y-62389761D01*
X192139523Y-62294523D01*
X192044285Y-62246904D01*
X191853809Y-62199285D01*
X191710952Y-62199285D01*
X191520476Y-62246904D01*
X191425238Y-62294523D01*
X191330000Y-62389761D01*
X191282380Y-62532619D01*
X191282380Y-62627857D01*
X191330000Y-62770714D01*
X191377619Y-62818333D01*
X192282380Y-63294523D02*
X192282380Y-63485000D01*
X192234761Y-63580238D01*
X192187142Y-63627857D01*
X192044285Y-63723095D01*
X191853809Y-63770714D01*
X191472857Y-63770714D01*
X191377619Y-63723095D01*
X191330000Y-63675476D01*
X191282380Y-63580238D01*
X191282380Y-63389761D01*
X191330000Y-63294523D01*
X191377619Y-63246904D01*
X191472857Y-63199285D01*
X191710952Y-63199285D01*
X191806190Y-63246904D01*
X191853809Y-63294523D01*
X191901428Y-63389761D01*
X191901428Y-63580238D01*
X191853809Y-63675476D01*
X191806190Y-63723095D01*
X191710952Y-63770714D01*
X198857142Y-65833333D02*
X198904761Y-65785714D01*
X198952380Y-65642857D01*
X198952380Y-65547619D01*
X198904761Y-65404761D01*
X198809523Y-65309523D01*
X198714285Y-65261904D01*
X198523809Y-65214285D01*
X198380952Y-65214285D01*
X198190476Y-65261904D01*
X198095238Y-65309523D01*
X198000000Y-65404761D01*
X197952380Y-65547619D01*
X197952380Y-65642857D01*
X198000000Y-65785714D01*
X198047619Y-65833333D01*
X198380952Y-66404761D02*
X198333333Y-66309523D01*
X198285714Y-66261904D01*
X198190476Y-66214285D01*
X198142857Y-66214285D01*
X198047619Y-66261904D01*
X198000000Y-66309523D01*
X197952380Y-66404761D01*
X197952380Y-66595238D01*
X198000000Y-66690476D01*
X198047619Y-66738095D01*
X198142857Y-66785714D01*
X198190476Y-66785714D01*
X198285714Y-66738095D01*
X198333333Y-66690476D01*
X198380952Y-66595238D01*
X198380952Y-66404761D01*
X198428571Y-66309523D01*
X198476190Y-66261904D01*
X198571428Y-66214285D01*
X198761904Y-66214285D01*
X198857142Y-66261904D01*
X198904761Y-66309523D01*
X198952380Y-66404761D01*
X198952380Y-66595238D01*
X198904761Y-66690476D01*
X198857142Y-66738095D01*
X198761904Y-66785714D01*
X198571428Y-66785714D01*
X198476190Y-66738095D01*
X198428571Y-66690476D01*
X198380952Y-66595238D01*
X197357142Y-65833333D02*
X197404761Y-65785714D01*
X197452380Y-65642857D01*
X197452380Y-65547619D01*
X197404761Y-65404761D01*
X197309523Y-65309523D01*
X197214285Y-65261904D01*
X197023809Y-65214285D01*
X196880952Y-65214285D01*
X196690476Y-65261904D01*
X196595238Y-65309523D01*
X196500000Y-65404761D01*
X196452380Y-65547619D01*
X196452380Y-65642857D01*
X196500000Y-65785714D01*
X196547619Y-65833333D01*
X196452380Y-66166666D02*
X196452380Y-66833333D01*
X197452380Y-66404761D01*
X182357142Y-66083333D02*
X182404761Y-66035714D01*
X182452380Y-65892857D01*
X182452380Y-65797619D01*
X182404761Y-65654761D01*
X182309523Y-65559523D01*
X182214285Y-65511904D01*
X182023809Y-65464285D01*
X181880952Y-65464285D01*
X181690476Y-65511904D01*
X181595238Y-65559523D01*
X181500000Y-65654761D01*
X181452380Y-65797619D01*
X181452380Y-65892857D01*
X181500000Y-66035714D01*
X181547619Y-66083333D01*
X181452380Y-66940476D02*
X181452380Y-66750000D01*
X181500000Y-66654761D01*
X181547619Y-66607142D01*
X181690476Y-66511904D01*
X181880952Y-66464285D01*
X182261904Y-66464285D01*
X182357142Y-66511904D01*
X182404761Y-66559523D01*
X182452380Y-66654761D01*
X182452380Y-66845238D01*
X182404761Y-66940476D01*
X182357142Y-66988095D01*
X182261904Y-67035714D01*
X182023809Y-67035714D01*
X181928571Y-66988095D01*
X181880952Y-66940476D01*
X181833333Y-66845238D01*
X181833333Y-66654761D01*
X181880952Y-66559523D01*
X181928571Y-66511904D01*
X182023809Y-66464285D01*
X180607142Y-66083333D02*
X180654761Y-66035714D01*
X180702380Y-65892857D01*
X180702380Y-65797619D01*
X180654761Y-65654761D01*
X180559523Y-65559523D01*
X180464285Y-65511904D01*
X180273809Y-65464285D01*
X180130952Y-65464285D01*
X179940476Y-65511904D01*
X179845238Y-65559523D01*
X179750000Y-65654761D01*
X179702380Y-65797619D01*
X179702380Y-65892857D01*
X179750000Y-66035714D01*
X179797619Y-66083333D01*
X179702380Y-66988095D02*
X179702380Y-66511904D01*
X180178571Y-66464285D01*
X180130952Y-66511904D01*
X180083333Y-66607142D01*
X180083333Y-66845238D01*
X180130952Y-66940476D01*
X180178571Y-66988095D01*
X180273809Y-67035714D01*
X180511904Y-67035714D01*
X180607142Y-66988095D01*
X180654761Y-66940476D01*
X180702380Y-66845238D01*
X180702380Y-66607142D01*
X180654761Y-66511904D01*
X180607142Y-66464285D01*
M02*
